<?xml version="1.0" encoding="us-ascii" standalone="no"?><svg xmlns="http://www.w3.org/2000/svg" xmlns:xlink="http://www.w3.org/1999/xlink" contentStyleType="text/css" height="956px" preserveAspectRatio="none" style="width:628px;height:956px;background:#FFFFFF;" version="1.1" viewBox="0 0 628 956" width="628px" zoomAndPan="magnify"><defs/><g><!--class C_0010265202035773861163--><g id="elem_C_0010265202035773861163"><rect codeLine="2" fill="#F1F1F1" height="48" id="C_0010265202035773861163" rx="2.5" ry="2.5" style="stroke:#181818;stroke-width:0.5;" width="179" x="57" y="901"/><ellipse cx="72" cy="917" fill="#ADD1B2" rx="11" ry="11" style="stroke:#181818;stroke-width:1.0;"/><path d="M71.4688,923.9219 Q69.7188,923.9219 68.5781,923.1875 Q67.4531,922.4375 66.8906,921.0938 Q66.3438,919.7344 66.3438,917.9375 Q66.3438,915.9063 67,914.4531 Q67.6563,913 68.9375,912.2188 Q70.2188,911.4375 72.0938,911.4375 Q72.9844,911.4375 73.6563,911.625 Q74.3281,911.7969 75.0156,912.1406 L74.2031,914.1563 Q73.5781,913.8438 73.0313,913.7188 Q72.5,913.5938 72.0156,913.5938 Q70.8438,913.5938 70.1406,914.125 Q69.4375,914.6563 69.1406,915.6094 Q68.8438,916.5625 68.8438,917.8281 Q68.8438,919.8438 69.5625,920.8125 Q70.2813,921.7656 71.875,921.7656 Q72.4688,921.7656 73.0938,921.6094 Q73.7188,921.4531 74.5469,921.0781 L74.5469,923.2969 Q73.8125,923.6094 73.0156,923.7656 Q72.2344,923.9219 71.4688,923.9219 Z " fill="#000000"/><text fill="#000000" font-family="sans-serif" font-size="14" lengthAdjust="spacing" textLength="128" x="86" y="922.0825">std::reverse_iterator</text><rect fill="#FFFFFF" height="15.7988" style="stroke:#181818;stroke-width:1.0;stroke-dasharray:2.0,2.0;" width="17" x="222" y="898"/><text fill="#000000" font-family="sans-serif" font-size="12" font-style="italic" lengthAdjust="spacing" textLength="15" x="223" y="910.2559">T *</text><line style="stroke:#181818;stroke-width:0.5;" x1="58" x2="235" y1="933" y2="933"/><line style="stroke:#181818;stroke-width:0.5;" x1="58" x2="235" y1="941" y2="941"/></g><!--class C_0014742100438532397765--><g id="elem_C_0014742100438532397765"><rect codeLine="6" fill="#F1F1F1" height="48" id="C_0014742100438532397765" rx="2.5" ry="2.5" style="stroke:#181818;stroke-width:0.5;" width="208" x="271.5" y="901"/><ellipse cx="286.5" cy="917" fill="#ADD1B2" rx="11" ry="11" style="stroke:#181818;stroke-width:1.0;"/><path d="M285.9688,923.9219 Q284.2188,923.9219 283.0781,923.1875 Q281.9531,922.4375 281.3906,921.0938 Q280.8438,919.7344 280.8438,917.9375 Q280.8438,915.9063 281.5,914.4531 Q282.1563,913 283.4375,912.2188 Q284.7188,911.4375 286.5938,911.4375 Q287.4844,911.4375 288.1563,911.625 Q288.8281,911.7969 289.5156,912.1406 L288.7031,914.1563 Q288.0781,913.8438 287.5313,913.7188 Q287,913.5938 286.5156,913.5938 Q285.3438,913.5938 284.6406,914.125 Q283.9375,914.6563 283.6406,915.6094 Q283.3438,916.5625 283.3438,917.8281 Q283.3438,919.8438 284.0625,920.8125 Q284.7813,921.7656 286.375,921.7656 Q286.9688,921.7656 287.5938,921.6094 Q288.2188,921.4531 289.0469,921.0781 L289.0469,923.2969 Q288.3125,923.6094 287.5156,923.7656 Q286.7344,923.9219 285.9688,923.9219 Z " fill="#000000"/><text fill="#000000" font-family="sans-serif" font-size="14" lengthAdjust="spacing" textLength="128" x="300.5" y="922.0825">std::reverse_iterator</text><rect fill="#FFFFFF" height="15.7988" style="stroke:#181818;stroke-width:1.0;stroke-dasharray:2.0,2.0;" width="46" x="436.5" y="898"/><text fill="#000000" font-family="sans-serif" font-size="12" font-style="italic" lengthAdjust="spacing" textLength="44" x="437.5" y="910.2559">T const*</text><line style="stroke:#181818;stroke-width:0.5;" x1="272.5" x2="478.5" y1="933" y2="933"/><line style="stroke:#181818;stroke-width:0.5;" x1="272.5" x2="478.5" y1="941" y2="941"/></g><!--class C_0007054821048708548455--><g id="elem_C_0007054821048708548455"><rect codeLine="10" fill="#F1F1F1" height="48" id="C_0007054821048708548455" rx="2.5" ry="2.5" style="stroke:#181818;stroke-width:0.5;" width="239" x="7" y="10"/><ellipse cx="22" cy="26" fill="#ADD1B2" rx="11" ry="11" style="stroke:#181818;stroke-width:1.0;"/><path d="M21.4688,32.9219 Q19.7188,32.9219 18.5781,32.1875 Q17.4531,31.4375 16.8906,30.0938 Q16.3438,28.7344 16.3438,26.9375 Q16.3438,24.9063 17,23.4531 Q17.6563,22 18.9375,21.2188 Q20.2188,20.4375 22.0938,20.4375 Q22.9844,20.4375 23.6563,20.625 Q24.3281,20.7969 25.0156,21.1406 L24.2031,23.1563 Q23.5781,22.8438 23.0313,22.7188 Q22.5,22.5938 22.0156,22.5938 Q20.8438,22.5938 20.1406,23.125 Q19.4375,23.6563 19.1406,24.6094 Q18.8438,25.5625 18.8438,26.8281 Q18.8438,28.8438 19.5625,29.8125 Q20.2813,30.7656 21.875,30.7656 Q22.4688,30.7656 23.0938,30.6094 Q23.7188,30.4531 24.5469,30.0781 L24.5469,32.2969 Q23.8125,32.6094 23.0156,32.7656 Q22.2344,32.9219 21.4688,32.9219 Z " fill="#000000"/><text fill="#000000" font-family="sans-serif" font-size="14" lengthAdjust="spacing" textLength="136" x="36" y="31.0825">std::integral_constant</text><rect fill="#FFFFFF" height="15.7988" style="stroke:#181818;stroke-width:1.0;stroke-dasharray:2.0,2.0;" width="69" x="180" y="7"/><text fill="#000000" font-family="sans-serif" font-size="12" font-style="italic" lengthAdjust="spacing" textLength="67" x="181" y="19.2559">std::size_t,N</text><line style="stroke:#181818;stroke-width:0.5;" x1="8" x2="245" y1="42" y2="42"/><line style="stroke:#181818;stroke-width:0.5;" x1="8" x2="245" y1="50" y2="50"/></g><!--class C_0008445770703431800702--><g id="elem_C_0008445770703431800702"><rect codeLine="14" fill="#F1F1F1" height="48" id="C_0008445770703431800702" rx="2.5" ry="2.5" style="stroke:#181818;stroke-width:0.5;" width="122" x="35.5" y="226"/><ellipse cx="50.5" cy="242" fill="#ADD1B2" rx="11" ry="11" style="stroke:#181818;stroke-width:1.0;"/><path d="M49.9688,248.9219 Q48.2188,248.9219 47.0781,248.1875 Q45.9531,247.4375 45.3906,246.0938 Q44.8438,244.7344 44.8438,242.9375 Q44.8438,240.9063 45.5,239.4531 Q46.1563,238 47.4375,237.2188 Q48.7188,236.4375 50.5938,236.4375 Q51.4844,236.4375 52.1563,236.625 Q52.8281,236.7969 53.5156,237.1406 L52.7031,239.1563 Q52.0781,238.8438 51.5313,238.7188 Q51,238.5938 50.5156,238.5938 Q49.3438,238.5938 48.6406,239.125 Q47.9375,239.6563 47.6406,240.6094 Q47.3438,241.5625 47.3438,242.8281 Q47.3438,244.8438 48.0625,245.8125 Q48.7813,246.7656 50.375,246.7656 Q50.9688,246.7656 51.5938,246.6094 Q52.2188,246.4531 53.0469,246.0781 L53.0469,248.2969 Q52.3125,248.6094 51.5156,248.7656 Q50.7344,248.9219 49.9688,248.9219 Z " fill="#000000"/><text fill="#000000" font-family="sans-serif" font-size="14" lengthAdjust="spacing" textLength="90" x="64.5" y="247.0825">std::tuple_size</text><line style="stroke:#181818;stroke-width:0.5;" x1="36.5" x2="156.5" y1="258" y2="258"/><line style="stroke:#181818;stroke-width:0.5;" x1="36.5" x2="156.5" y1="266" y2="266"/></g><!--class C_0011139993691928538022--><g id="elem_C_0011139993691928538022"><rect codeLine="18" fill="#F1F1F1" height="48" id="C_0011139993691928538022" rx="2.5" ry="2.5" style="stroke:#181818;stroke-width:0.5;" width="226" x="96.5" y="118"/><ellipse cx="111.5" cy="134" fill="#ADD1B2" rx="11" ry="11" style="stroke:#181818;stroke-width:1.0;"/><path d="M110.9688,140.9219 Q109.2188,140.9219 108.0781,140.1875 Q106.9531,139.4375 106.3906,138.0938 Q105.8438,136.7344 105.8438,134.9375 Q105.8438,132.9063 106.5,131.4531 Q107.1563,130 108.4375,129.2188 Q109.7188,128.4375 111.5938,128.4375 Q112.4844,128.4375 113.1563,128.625 Q113.8281,128.7969 114.5156,129.1406 L113.7031,131.1563 Q113.0781,130.8438 112.5313,130.7188 Q112,130.5938 111.5156,130.5938 Q110.3438,130.5938 109.6406,131.125 Q108.9375,131.6563 108.6406,132.6094 Q108.3438,133.5625 108.3438,134.8281 Q108.3438,136.8438 109.0625,137.8125 Q109.7813,138.7656 111.375,138.7656 Q111.9688,138.7656 112.5938,138.6094 Q113.2188,138.4531 114.0469,138.0781 L114.0469,140.2969 Q113.3125,140.6094 112.5156,140.7656 Q111.7344,140.9219 110.9688,140.9219 Z " fill="#000000"/><text fill="#000000" font-family="sans-serif" font-size="14" lengthAdjust="spacing" textLength="90" x="125.5" y="139.0825">std::tuple_size</text><rect fill="#FFFFFF" height="15.7988" style="stroke:#181818;stroke-width:1.0;stroke-dasharray:2.0,2.0;" width="102" x="223.5" y="115"/><text fill="#000000" font-family="sans-serif" font-size="12" font-style="italic" lengthAdjust="spacing" textLength="100" x="224.5" y="127.2559">mystd::array&lt;T,N&gt;</text><line style="stroke:#181818;stroke-width:0.5;" x1="97.5" x2="321.5" y1="150" y2="150"/><line style="stroke:#181818;stroke-width:0.5;" x1="97.5" x2="321.5" y1="158" y2="158"/></g><!--class C_0007910875596971839488--><g id="elem_C_0007910875596971839488"><rect codeLine="22" fill="#F1F1F1" height="48" id="C_0007910875596971839488" rx="2.5" ry="2.5" style="stroke:#181818;stroke-width:0.5;" width="148" x="413.5" y="226"/><ellipse cx="428.5" cy="242" fill="#ADD1B2" rx="11" ry="11" style="stroke:#181818;stroke-width:1.0;"/><path d="M427.9688,248.9219 Q426.2188,248.9219 425.0781,248.1875 Q423.9531,247.4375 423.3906,246.0938 Q422.8438,244.7344 422.8438,242.9375 Q422.8438,240.9063 423.5,239.4531 Q424.1563,238 425.4375,237.2188 Q426.7188,236.4375 428.5938,236.4375 Q429.4844,236.4375 430.1563,236.625 Q430.8281,236.7969 431.5156,237.1406 L430.7031,239.1563 Q430.0781,238.8438 429.5313,238.7188 Q429,238.5938 428.5156,238.5938 Q427.3438,238.5938 426.6406,239.125 Q425.9375,239.6563 425.6406,240.6094 Q425.3438,241.5625 425.3438,242.8281 Q425.3438,244.8438 426.0625,245.8125 Q426.7813,246.7656 428.375,246.7656 Q428.9688,246.7656 429.5938,246.6094 Q430.2188,246.4531 431.0469,246.0781 L431.0469,248.2969 Q430.3125,248.6094 429.5156,248.7656 Q428.7344,248.9219 427.9688,248.9219 Z " fill="#000000"/><text fill="#000000" font-family="sans-serif" font-size="14" lengthAdjust="spacing" textLength="116" x="442.5" y="247.0825">std::tuple_element</text><line style="stroke:#181818;stroke-width:0.5;" x1="414.5" x2="560.5" y1="258" y2="258"/><line style="stroke:#181818;stroke-width:0.5;" x1="414.5" x2="560.5" y1="266" y2="266"/></g><!--class C_0015728023444566563484--><g id="elem_C_0015728023444566563484"><rect codeLine="26" fill="#F1F1F1" height="48" id="C_0015728023444566563484" rx="2.5" ry="2.5" style="stroke:#181818;stroke-width:0.5;" width="259" x="358" y="118"/><ellipse cx="373" cy="134" fill="#ADD1B2" rx="11" ry="11" style="stroke:#181818;stroke-width:1.0;"/><path d="M372.4688,140.9219 Q370.7188,140.9219 369.5781,140.1875 Q368.4531,139.4375 367.8906,138.0938 Q367.3438,136.7344 367.3438,134.9375 Q367.3438,132.9063 368,131.4531 Q368.6563,130 369.9375,129.2188 Q371.2188,128.4375 373.0938,128.4375 Q373.9844,128.4375 374.6563,128.625 Q375.3281,128.7969 376.0156,129.1406 L375.2031,131.1563 Q374.5781,130.8438 374.0313,130.7188 Q373.5,130.5938 373.0156,130.5938 Q371.8438,130.5938 371.1406,131.125 Q370.4375,131.6563 370.1406,132.6094 Q369.8438,133.5625 369.8438,134.8281 Q369.8438,136.8438 370.5625,137.8125 Q371.2813,138.7656 372.875,138.7656 Q373.4688,138.7656 374.0938,138.6094 Q374.7188,138.4531 375.5469,138.0781 L375.5469,140.2969 Q374.8125,140.6094 374.0156,140.7656 Q373.2344,140.9219 372.4688,140.9219 Z " fill="#000000"/><text fill="#000000" font-family="sans-serif" font-size="14" lengthAdjust="spacing" textLength="116" x="387" y="139.0825">std::tuple_element</text><rect fill="#FFFFFF" height="15.7988" style="stroke:#181818;stroke-width:1.0;stroke-dasharray:2.0,2.0;" width="109" x="511" y="115"/><text fill="#000000" font-family="sans-serif" font-size="12" font-style="italic" lengthAdjust="spacing" textLength="107" x="512" y="127.2559">I,mystd::array&lt;T,N&gt;</text><line style="stroke:#181818;stroke-width:0.5;" x1="359" x2="616" y1="150" y2="150"/><line style="stroke:#181818;stroke-width:0.5;" x1="359" x2="616" y1="158" y2="158"/></g><!--class C_0003495212537267695082--><g id="elem_C_0003495212537267695082"><rect codeLine="30" fill="#F1F1F1" height="506.7617" id="C_0003495212537267695082" rx="2.5" ry="2.5" style="stroke:#181818;stroke-width:0.5;" width="402" x="59.5" y="334"/><ellipse cx="176.75" cy="350" fill="#ADD1B2" rx="11" ry="11" style="stroke:#181818;stroke-width:1.0;"/><path d="M176.2188,356.9219 Q174.4688,356.9219 173.3281,356.1875 Q172.2031,355.4375 171.6406,354.0938 Q171.0938,352.7344 171.0938,350.9375 Q171.0938,348.9063 171.75,347.4531 Q172.4063,346 173.6875,345.2188 Q174.9688,344.4375 176.8438,344.4375 Q177.7344,344.4375 178.4063,344.625 Q179.0781,344.7969 179.7656,345.1406 L178.9531,347.1563 Q178.3281,346.8438 177.7813,346.7188 Q177.25,346.5938 176.7656,346.5938 Q175.5938,346.5938 174.8906,347.125 Q174.1875,347.6563 173.8906,348.6094 Q173.5938,349.5625 173.5938,350.8281 Q173.5938,352.8438 174.3125,353.8125 Q175.0313,354.7656 176.625,354.7656 Q177.2188,354.7656 177.8438,354.6094 Q178.4688,354.4531 179.2969,354.0781 L179.2969,356.2969 Q178.5625,356.6094 177.7656,356.7656 Q176.9844,356.9219 176.2188,356.9219 Z " fill="#000000"/><text fill="#000000" font-family="sans-serif" font-size="14" lengthAdjust="spacing" textLength="78" x="197.25" y="355.0825">mystd::array</text><rect fill="#FFFFFF" height="15.7988" style="stroke:#181818;stroke-width:1.0;stroke-dasharray:2.0,2.0;" width="79" x="385.5" y="331"/><text fill="#000000" font-family="sans-serif" font-size="12" font-style="italic" lengthAdjust="spacing" textLength="77" x="386.5" y="343.2559">T,std::size_t N</text><line style="stroke:#181818;stroke-width:0.5;" x1="60.5" x2="460.5" y1="366" y2="366"/><ellipse cx="70.5" cy="379.5493" fill="#84BE84" rx="3" ry="3" style="stroke:#038048;stroke-width:1.0;"/><text fill="#000000" font-family="sans-serif" font-size="14" lengthAdjust="spacing" textLength="271" x="79.5" y="383.1318">operator[](std::size_t index) constexpr : T &amp;</text><ellipse cx="70.5" cy="395.6479" fill="#84BE84" rx="3" ry="3" style="stroke:#038048;stroke-width:1.0;"/><text fill="#000000" font-family="sans-serif" font-size="14" lengthAdjust="spacing" textLength="347" x="79.5" y="399.2305">operator[](std::size_t index) constexpr const : const T &amp;</text><line style="stroke:#181818;stroke-width:1.0;stroke-dasharray:1.0,2.0;" x1="60.5" x2="460.5" y1="406.1973" y2="406.1973"/><ellipse cx="70.5" cy="419.7466" fill="#84BE84" rx="3" ry="3" style="stroke:#038048;stroke-width:1.0;"/><text fill="#000000" font-family="sans-serif" font-size="14" lengthAdjust="spacing" textLength="297" x="79.5" y="423.3291">at(std::size_t index) constexpr const : const T &amp;</text><ellipse cx="70.5" cy="435.8452" fill="#84BE84" rx="3" ry="3" style="stroke:#038048;stroke-width:1.0;"/><text fill="#000000" font-family="sans-serif" font-size="14" lengthAdjust="spacing" textLength="221" x="79.5" y="439.4277">at(std::size_t index) constexpr : T &amp;</text><ellipse cx="70.5" cy="451.9438" fill="#84BE84" rx="3" ry="3" style="stroke:#038048;stroke-width:1.0;"/><text fill="#000000" font-family="sans-serif" font-size="14" lengthAdjust="spacing" textLength="139" x="79.5" y="455.5264">back() constexpr : T &amp;</text><ellipse cx="70.5" cy="468.0425" fill="#84BE84" rx="3" ry="3" style="stroke:#038048;stroke-width:1.0;"/><text fill="#000000" font-family="sans-serif" font-size="14" lengthAdjust="spacing" textLength="215" x="79.5" y="471.625">back() constexpr const : const T &amp;</text><ellipse cx="70.5" cy="484.1411" fill="#84BE84" rx="3" ry="3" style="stroke:#038048;stroke-width:1.0;"/><text fill="#000000" font-family="sans-serif" font-size="14" lengthAdjust="spacing" textLength="201" x="79.5" y="487.7236">begin() constexpr noexcept : T *</text><ellipse cx="70.5" cy="500.2397" fill="#84BE84" rx="3" ry="3" style="stroke:#038048;stroke-width:1.0;"/><text fill="#000000" font-family="sans-serif" font-size="14" lengthAdjust="spacing" textLength="277" x="79.5" y="503.8223">begin() constexpr const noexcept : const T *</text><ellipse cx="70.5" cy="516.3384" fill="#84BE84" rx="3" ry="3" style="stroke:#038048;stroke-width:1.0;"/><text fill="#000000" font-family="sans-serif" font-size="14" lengthAdjust="spacing" textLength="284" x="79.5" y="519.9209">cbegin() constexpr const noexcept : const T *</text><ellipse cx="70.5" cy="532.437" fill="#84BE84" rx="3" ry="3" style="stroke:#038048;stroke-width:1.0;"/><text fill="#000000" font-family="sans-serif" font-size="14" lengthAdjust="spacing" textLength="273" x="79.5" y="536.0195">cend() constexpr const noexcept : const T *</text><ellipse cx="70.5" cy="548.5356" fill="#84BE84" rx="3" ry="3" style="stroke:#038048;stroke-width:1.0;"/><text fill="#000000" font-family="sans-serif" font-size="14" lengthAdjust="spacing" textLength="376" x="79.5" y="552.1182">crbegin() constexpr const noexcept : const_reverse_iterator</text><ellipse cx="70.5" cy="564.6343" fill="#84BE84" rx="3" ry="3" style="stroke:#038048;stroke-width:1.0;"/><text fill="#000000" font-family="sans-serif" font-size="14" lengthAdjust="spacing" textLength="365" x="79.5" y="568.2168">crend() constexpr const noexcept : const_reverse_iterator</text><ellipse cx="70.5" cy="580.7329" fill="#84BE84" rx="3" ry="3" style="stroke:#038048;stroke-width:1.0;"/><text fill="#000000" font-family="sans-serif" font-size="14" lengthAdjust="spacing" textLength="194" x="79.5" y="584.3154">data() constexpr noexcept : T *</text><ellipse cx="70.5" cy="596.8315" fill="#84BE84" rx="3" ry="3" style="stroke:#038048;stroke-width:1.0;"/><text fill="#000000" font-family="sans-serif" font-size="14" lengthAdjust="spacing" textLength="270" x="79.5" y="600.4141">data() constexpr const noexcept : const T *</text><ellipse cx="70.5" cy="612.9302" fill="#84BE84" rx="3" ry="3" style="stroke:#038048;stroke-width:1.0;"/><text fill="#000000" font-family="sans-serif" font-size="14" lengthAdjust="spacing" textLength="251" x="79.5" y="616.5127">empty() constexpr const noexcept : bool</text><ellipse cx="70.5" cy="629.0288" fill="#84BE84" rx="3" ry="3" style="stroke:#038048;stroke-width:1.0;"/><text fill="#000000" font-family="sans-serif" font-size="14" lengthAdjust="spacing" textLength="266" x="79.5" y="632.6113">end() constexpr const noexcept : const T *</text><ellipse cx="70.5" cy="645.1274" fill="#84BE84" rx="3" ry="3" style="stroke:#038048;stroke-width:1.0;"/><text fill="#000000" font-family="sans-serif" font-size="14" lengthAdjust="spacing" textLength="190" x="79.5" y="648.71">end() constexpr noexcept : T *</text><ellipse cx="70.5" cy="661.2261" fill="#84BE84" rx="3" ry="3" style="stroke:#038048;stroke-width:1.0;"/><text fill="#000000" font-family="sans-serif" font-size="14" lengthAdjust="spacing" textLength="224" x="79.5" y="664.8086">fill(const T &amp; value) constexpr : void</text><ellipse cx="70.5" cy="677.3247" fill="#84BE84" rx="3" ry="3" style="stroke:#038048;stroke-width:1.0;"/><text fill="#000000" font-family="sans-serif" font-size="14" lengthAdjust="spacing" textLength="214" x="79.5" y="680.9072">front() constexpr const : const T &amp;</text><ellipse cx="70.5" cy="693.4233" fill="#84BE84" rx="3" ry="3" style="stroke:#038048;stroke-width:1.0;"/><text fill="#000000" font-family="sans-serif" font-size="14" lengthAdjust="spacing" textLength="138" x="79.5" y="697.0059">front() constexpr : T &amp;</text><ellipse cx="70.5" cy="709.522" fill="#84BE84" rx="3" ry="3" style="stroke:#038048;stroke-width:1.0;"/><text fill="#000000" font-family="sans-serif" font-size="14" lengthAdjust="spacing" textLength="306" x="79.5" y="713.1045">max_size() constexpr const noexcept : std::size_t</text><ellipse cx="70.5" cy="725.6206" fill="#84BE84" rx="3" ry="3" style="stroke:#038048;stroke-width:1.0;"/><text fill="#000000" font-family="sans-serif" font-size="14" lengthAdjust="spacing" textLength="289" x="79.5" y="729.2031">rbegin() constexpr noexcept : reverse_iterator</text><ellipse cx="70.5" cy="741.7192" fill="#84BE84" rx="3" ry="3" style="stroke:#038048;stroke-width:1.0;"/><text fill="#000000" font-family="sans-serif" font-size="14" lengthAdjust="spacing" textLength="369" x="79.5" y="745.3018">rbegin() constexpr const noexcept : const_reverse_iterator</text><ellipse cx="70.5" cy="757.8179" fill="#84BE84" rx="3" ry="3" style="stroke:#038048;stroke-width:1.0;"/><text fill="#000000" font-family="sans-serif" font-size="14" lengthAdjust="spacing" textLength="278" x="79.5" y="761.4004">rend() constexpr noexcept : reverse_iterator</text><ellipse cx="70.5" cy="773.9165" fill="#84BE84" rx="3" ry="3" style="stroke:#038048;stroke-width:1.0;"/><text fill="#000000" font-family="sans-serif" font-size="14" lengthAdjust="spacing" textLength="358" x="79.5" y="777.499">rend() constexpr const noexcept : const_reverse_iterator</text><ellipse cx="70.5" cy="790.0151" fill="#84BE84" rx="3" ry="3" style="stroke:#038048;stroke-width:1.0;"/><text fill="#000000" font-family="sans-serif" font-size="14" lengthAdjust="spacing" textLength="273" x="79.5" y="793.5977">size() constexpr const noexcept : std::size_t</text><ellipse cx="70.5" cy="806.1138" fill="#84BE84" rx="3" ry="3" style="stroke:#038048;stroke-width:1.0;"/><text fill="#000000" font-family="sans-serif" font-size="14" lengthAdjust="spacing" textLength="327" x="79.5" y="809.6963">swap(array&lt;T,N&gt; &amp; other) constexpr noexcept : void</text><line style="stroke:#181818;stroke-width:0.5;" x1="60.5" x2="460.5" y1="816.6631" y2="816.6631"/><ellipse cx="70.5" cy="830.2124" fill="none" rx="3" ry="3" style="stroke:#038048;stroke-width:1.0;"/><text fill="#000000" font-family="sans-serif" font-size="14" lengthAdjust="spacing" textLength="66" x="79.5" y="833.7949">elems : T[]</text></g><!--class C_0011848813352213389560--><g id="elem_C_0011848813352213389560"><rect codeLine="63" fill="#F1F1F1" height="48" id="C_0011848813352213389560" rx="2.5" ry="2.5" style="stroke:#181818;stroke-width:0.5;" width="133" x="194" y="226"/><ellipse cx="209" cy="242" fill="#ADD1B2" rx="11" ry="11" style="stroke:#181818;stroke-width:1.0;"/><path d="M208.4688,248.9219 Q206.7188,248.9219 205.5781,248.1875 Q204.4531,247.4375 203.8906,246.0938 Q203.3438,244.7344 203.3438,242.9375 Q203.3438,240.9063 204,239.4531 Q204.6563,238 205.9375,237.2188 Q207.2188,236.4375 209.0938,236.4375 Q209.9844,236.4375 210.6563,236.625 Q211.3281,236.7969 212.0156,237.1406 L211.2031,239.1563 Q210.5781,238.8438 210.0313,238.7188 Q209.5,238.5938 209.0156,238.5938 Q207.8438,238.5938 207.1406,239.125 Q206.4375,239.6563 206.1406,240.6094 Q205.8438,241.5625 205.8438,242.8281 Q205.8438,244.8438 206.5625,245.8125 Q207.2813,246.7656 208.875,246.7656 Q209.4688,246.7656 210.0938,246.6094 Q210.7188,246.4531 211.5469,246.0781 L211.5469,248.2969 Q210.8125,248.6094 210.0156,248.7656 Q209.2344,248.9219 208.4688,248.9219 Z " fill="#000000"/><text fill="#000000" font-family="sans-serif" font-size="14" lengthAdjust="spacing" textLength="78" x="223" y="247.0825">mystd::array</text><rect fill="#FFFFFF" height="15.7988" style="stroke:#181818;stroke-width:1.0;stroke-dasharray:2.0,2.0;" width="21" x="309" y="223"/><text fill="#000000" font-family="sans-serif" font-size="12" font-style="italic" lengthAdjust="spacing" textLength="19" x="310" y="235.2559">T,N</text><line style="stroke:#181818;stroke-width:0.5;" x1="195" x2="326" y1="258" y2="258"/><line style="stroke:#181818;stroke-width:0.5;" x1="195" x2="326" y1="266" y2="266"/></g><!--reverse link C_0007054821048708548455 to C_0008445770703431800702--><g id="link_C_0007054821048708548455_C_0008445770703431800702"><path codeLine="66" d="M97.64,75.15 C89.85,88.19 82.49,103.14 78.5,118 C68.56,155.03 79.25,199.49 87.88,225.94 " fill="none" id="C_0007054821048708548455-backto-C_0008445770703431800702" style="stroke:#181818;stroke-width:1.0;"/><polygon fill="none" points="91.87,71.18,108.61,58.2,103.62,78.79,91.87,71.18" style="stroke:#181818;stroke-width:1.0;"/></g><!--link C_0011139993691928538022 to C_0011848813352213389560--><g id="link_C_0011139993691928538022_C_0011848813352213389560"><path codeLine="67" d="M220.57,166 C228.33,182.14 238.76,203.82 247.01,220.97 " fill="none" id="C_0011139993691928538022-to-C_0011848813352213389560" style="stroke:#181818;stroke-width:1.0;stroke-dasharray:7.0,7.0;"/><polygon fill="#181818" points="249.28,225.68,248.9834,215.8356,247.1126,221.1742,241.7741,219.3034,249.28,225.68" style="stroke:#181818;stroke-width:1.0;"/></g><!--link C_0011139993691928538022 to C_0008445770703431800702--><g id="link_C_0011139993691928538022_C_0008445770703431800702"><path codeLine="68" d="M184.98,166 C170.72,179.38 152.39,196.57 136.13,211.83 " fill="none" id="C_0011139993691928538022-to-C_0008445770703431800702" style="stroke:#181818;stroke-width:1.0;stroke-dasharray:7.0,7.0;"/><polygon fill="none" points="140.74,217.1,121.36,225.68,131.16,206.89,140.74,217.1" style="stroke:#181818;stroke-width:1.0;"/></g><!--reverse link C_0007054821048708548455 to C_0011139993691928538022--><g id="link_C_0007054821048708548455_C_0011139993691928538022"><path codeLine="69" d="M157.18,74.18 C168.63,88.8 181.26,104.93 191.24,117.68 " fill="none" id="C_0007054821048708548455-backto-C_0011139993691928538022" style="stroke:#181818;stroke-width:1.0;"/><polygon fill="none" points="151.33,78.06,144.51,58,162.35,69.43,151.33,78.06" style="stroke:#181818;stroke-width:1.0;"/></g><!--link C_0015728023444566563484 to C_0011848813352213389560--><g id="link_C_0015728023444566563484_C_0011848813352213389560"><path codeLine="70" d="M438.24,166 C401.93,182.96 352.53,206.02 315.03,223.54 " fill="none" id="C_0015728023444566563484-to-C_0011848813352213389560" style="stroke:#181818;stroke-width:1.0;stroke-dasharray:7.0,7.0;"/><polygon fill="#181818" points="310.05,225.86,319.8972,225.6771,314.5806,223.7448,316.5128,218.4282,310.05,225.86" style="stroke:#181818;stroke-width:1.0;"/></g><!--link C_0015728023444566563484 to C_0007910875596971839488--><g id="link_C_0015728023444566563484_C_0007910875596971839488"><path codeLine="71" d="M487.5,166 C487.5,177.59 487.5,192.03 487.5,205.6 " fill="none" id="C_0015728023444566563484-to-C_0007910875596971839488" style="stroke:#181818;stroke-width:1.0;stroke-dasharray:7.0,7.0;"/><polygon fill="none" points="494.5,205.68,487.5,225.68,480.5,205.68,494.5,205.68" style="stroke:#181818;stroke-width:1.0;"/></g><!--link C_0003495212537267695082 to C_0010265202035773861163--><g id="link_C_0003495212537267695082_C_0010265202035773861163"><path codeLine="72" d="M174.68,841.07 C167.41,862.46 160.99,881.35 156.12,895.68 " fill="none" id="C_0003495212537267695082-to-C_0010265202035773861163" style="stroke:#181818;stroke-width:1.0;stroke-dasharray:7.0,7.0;"/><polygon fill="#181818" points="154.4,900.75,161.0736,893.5069,156.0026,896.0138,153.4957,890.9427,154.4,900.75" style="stroke:#181818;stroke-width:1.0;"/></g><!--link C_0003495212537267695082 to C_0014742100438532397765--><g id="link_C_0003495212537267695082_C_0014742100438532397765"><path codeLine="73" d="M347.07,841.07 C354.41,862.46 360.88,881.35 365.79,895.68 " fill="none" id="C_0003495212537267695082-to-C_0014742100438532397765" style="stroke:#181818;stroke-width:1.0;stroke-dasharray:7.0,7.0;"/><polygon fill="#181818" points="367.53,900.75,368.4168,890.9411,365.919,896.0167,360.8434,893.5188,367.53,900.75" style="stroke:#181818;stroke-width:1.0;"/></g><!--link C_0011848813352213389560 to C_0003495212537267695082--><g id="link_C_0011848813352213389560_C_0003495212537267695082"><path codeLine="74" d="M260.5,274.06 C260.5,284.59 260.5,298.21 260.5,313.87 " fill="none" id="C_0011848813352213389560-to-C_0003495212537267695082" style="stroke:#181818;stroke-width:1.0;stroke-dasharray:7.0,7.0;"/><polygon fill="none" points="267.5,313.92,260.5,333.92,253.5,313.92,267.5,313.92" style="stroke:#181818;stroke-width:1.0;"/></g><!--SRC=[fLPDRzim3BtxLmWzh6dJ6lgmPAa8UjbX6D3rrErI58QIQAqnHmvafKstxhzFTjf4IMJ7mIws8Jw-Hv44wKaXgmgSL7PwTMNKipALodAhZBIb6Ts1y-iJ82lmEOCGGSmeXXWIcgQ4CuGOYIQDUviP_8coBFhxZceLcPIwihvIaYOOGPWGJWac8aqPzPK2vf1IhgrwDBB86dwfxQWvhlBVAhCNjnizc4AQS4UPy1HozvbGNoza3kdPnRnGMKs_OUP9ujBX64X24A-fiCySC7SpZsQlpOaqHhwExjmjlBGXH8GGX0aai4iDXzWN2vdRnLIXPafRBqS2GPvIAfX84ISYuNmhH_lcW-IZhnTTrw4fTZ6InEM8CSg8Ixn_dO1vHt67tAi-yAjF4a4nmfIacALCKCYtQXGmEvrXEL_rx_t3m2VEzLGjprOjhPPp0wx07VZK7zvyEQVLktQDusWexR5U1rtUunhBoQz1d_E0n5WzvdeBf4krdAYvRLZEGuYLkuVxu7FeoP5mfQVzmQOlUROxeMhdVb81rwcqiZD5Uu2kMwZPtBvseyTbMJZW4QdPnUv6-3ClYi6wxE1P5WkrtJ7FPJvrE5DgUwXdza7l3JUJosR2TOVjjNGqD9qDk5-B_sa1qv6b7kZUEaUce7gHyy5cUhhobFP9cPP0cpgv2Jci1t1LP_x-eNLStlgRXRjvZWYX6Bid5vJ1hSsoR_uOnQqBTFHsUTc-8riNLXnVjuVKuVLstItM7MDmjRPkeSCnXhq-OWojsjPLj1OB_PuTzWhzQhNMT1DYQ6T6fr-KhljOJS5BRf-0wn3zUBcO5HUWRlEyr036BCRHwStDZs_hi-_ZXRQB5NfzY66COWm6SD5OqTa_]--></g></svg>